<?xml version="1.0" standalone="no"?>
<!DOCTYPE svg PUBLIC "-//W3C//DTD SVG 20010904//EN"
 "http://www.w3.org/TR/2001/REC-SVG-20010904/DTD/svg10.dtd">
<svg version="1.0" xmlns="http://www.w3.org/2000/svg"
 width="160.000000pt" height="160.000000pt" viewBox="0 0 160.000000 160.000000"
 preserveAspectRatio="xMidYMid meet">
<metadata>
Created by potrace 1.11, written by Peter Selinger 2001-2013
</metadata>
<g transform="translate(0.000000,160.000000) scale(0.100000,-0.100000)"
fill="#000000" stroke="none">
<path d="M626 1563 c-3 -3 -25 -7 -48 -9 -42 -3 -67 -7 -138 -19 -51 -9 -139
-51 -147 -71 -5 -14 -1 -49 23 -219 2 -16 7 -41 9 -55 3 -14 7 -43 10 -65 2
-22 8 -69 14 -105 6 -36 13 -83 16 -105 3 -22 7 -49 10 -60 2 -11 7 -46 10
-78 4 -32 8 -68 11 -80 2 -12 7 -38 10 -57 3 -19 7 -46 10 -60 2 -14 7 -45 10
-70 3 -25 8 -54 10 -65 3 -17 18 -133 39 -297 6 -53 23 -75 75 -97 48 -20 109
-36 124 -33 4 2 13 -1 20 -6 6 -5 65 -8 131 -7 178 3 313 43 335 99 4 12 11
51 14 86 4 36 8 76 11 90 2 14 6 43 9 65 3 22 7 55 10 73 3 18 8 50 11 70 3
21 7 47 9 59 3 12 8 43 12 70 3 26 8 57 10 68 2 11 6 40 9 65 3 25 8 57 11 72
3 15 7 41 9 58 5 39 14 98 25 175 5 33 12 80 15 105 3 25 8 56 10 70 3 14 7
43 10 65 3 22 7 52 10 68 13 71 14 83 9 100 -10 30 -106 64 -264 92 -45 9
-457 15 -464 8z m160 -25 c3 -4 -1 -5 -10 -4 -8 1 -18 5 -22 8 -3 4 1 5 10 4
8 -1 18 -5 22 -8z m79 -19 c1 -11 -1 -22 -5 -24 -3 -2 -6 9 -6 25 0 33 9 32
11 -1z m45 21 c0 -5 -2 -10 -4 -10 -3 0 -8 5 -11 10 -3 6 -1 10 4 10 6 0 11
-4 11 -10z m55 -19 c3 -5 2 -12 -3 -15 -5 -3 -9 1 -9 9 0 17 3 19 12 6z m-498
-26 c0 -8 -4 -12 -9 -9 -5 3 -6 10 -3 15 9 13 12 11 12 -6z m573 9 c0 -8 -19
-13 -24 -6 -3 5 1 9 9 9 8 0 15 -2 15 -3z m81 -11 c12 -16 12 -17 -2 -6 -9 7
-20 9 -24 5 -5 -4 -5 -1 -1 6 9 16 11 15 27 -5z m-511 -13 c0 -5 -2 -10 -4
-10 -3 0 -8 5 -11 10 -3 6 -1 10 4 10 6 0 11 -4 11 -10z m158 -25 c-3 -3 -9 2
-12 12 -6 14 -5 15 5 6 7 -7 10 -15 7 -18z m82 10 c0 -7 -30 -13 -34 -7 -3 4
4 9 15 9 10 1 19 0 19 -2z m75 -45 c3 -5 1 -10 -4 -10 -6 0 -11 5 -11 10 0 6
2 10 4 10 3 0 8 -4 11 -10z m-240 -19 c3 -5 2 -12 -3 -15 -5 -3 -9 1 -9 9 0
17 3 19 12 6z m102 -26 c0 -8 -4 -12 -9 -9 -5 3 -6 10 -3 15 9 13 12 11 12 -6z
m77 7 c2 -4 -5 -9 -17 -9 -17 -2 -19 0 -7 7 18 12 18 12 24 2z"/>
</g>
</svg>
